HIERARCHY
ROOT Hips
{
	OFFSET -0.001795 -0.223333 0.028219
	CHANNELS 6 Xposition Yposition Zposition Zrotation Yrotation Xrotation 
	JOINT LeftUpLeg
	{
		OFFSET 0.069520 -0.091406 -0.006815
		CHANNELS 3 Zrotation Yrotation Xrotation
		JOINT LeftLeg
		{
			OFFSET 0.034277 -0.375199 -0.004496
			CHANNELS 3 Zrotation Yrotation Xrotation
			JOINT LeftFoot
			{
				OFFSET -0.013596 -0.397961 -0.043693
				CHANNELS 3 Zrotation Yrotation Xrotation
				JOINT LeftToe
				{
					OFFSET 0.026358 -0.055791 0.119288
					CHANNELS 3 Zrotation Yrotation Xrotation
					End Site
					{
						OFFSET 0.000000 0.000000 0.000000
					}
				}
			}
		}
	}
	JOINT RightUpLeg
	{
		OFFSET -0.067670 -0.090522 -0.004320
		CHANNELS 3 Zrotation Yrotation Xrotation
		JOINT RightLeg
		{
			OFFSET -0.038290 -0.382569 -0.008850
			CHANNELS 3 Zrotation Yrotation Xrotation
			JOINT RightFoot
			{
				OFFSET 0.015774 -0.398415 -0.042312
				CHANNELS 3 Zrotation Yrotation Xrotation
				JOINT RightToe
				{
					OFFSET -0.025372 -0.048144 0.123348
					CHANNELS 3 Zrotation Yrotation Xrotation
					End Site
					{
						OFFSET 0.000000 0.000000 0.000000
					}
				}
			}
		}
	}
	JOINT Spine
	{
		OFFSET -0.002533 0.108963 -0.026696
		CHANNELS 3 Zrotation Yrotation Xrotation
		JOINT Spine1
		{
			OFFSET 0.005487 0.135180 0.001092
			CHANNELS 3 Zrotation Yrotation Xrotation
			JOINT Spine2
			{
				OFFSET 0.001457 0.052922 0.025425
				CHANNELS 3 Zrotation Yrotation Xrotation
				JOINT Neck
				{
					OFFSET -0.002778 0.213870 -0.042857
					CHANNELS 3 Zrotation Yrotation Xrotation
					JOINT Head
					{
						OFFSET 0.005152 0.064970 0.051349
						CHANNELS 3 Zrotation Yrotation Xrotation
						End Site
						{
							OFFSET 0.000000 0.000000 0.000000
						}
					}
				}
				JOINT LeftShoulder
				{
					OFFSET 0.078845 0.121749 -0.034090
					CHANNELS 3 Zrotation Yrotation Xrotation
					JOINT LeftArm
					{
						OFFSET 0.090977 0.030469 -0.008868
						CHANNELS 3 Zrotation Yrotation Xrotation
						JOINT LeftForeArm
						{
							OFFSET 0.259612 -0.012772 -0.027456
							CHANNELS 3 Zrotation Yrotation Xrotation
							JOINT LeftHand
							{
								OFFSET 0.249234 0.008986 -0.001171
								CHANNELS 3 Zrotation Yrotation Xrotation
								End Site
								{
									OFFSET 0.000000 0.000000 0.000000
								}
							}
						}
					}
				}
				JOINT RightShoulder
				{
					OFFSET -0.081759 0.118833 -0.038615
					CHANNELS 3 Zrotation Yrotation Xrotation
					JOINT RightArm
					{
						OFFSET -0.096012 0.032551 -0.009143
						CHANNELS 3 Zrotation Yrotation Xrotation
						JOINT RightForeArm
						{
							OFFSET -0.253742 -0.013329 -0.021401
							CHANNELS 3 Zrotation Yrotation Xrotation
							JOINT RightHand
							{
								OFFSET -0.255298 0.007772 -0.005559
								CHANNELS 3 Zrotation Yrotation Xrotation
								End Site
								{
									OFFSET 0.000000 0.000000 0.000000
								}
							}
						}
					}
				}
			}
		}
	}
}
MOTION
Frames: 13
Frame Time: 0.050000
-0.181464 0.962117 -0.787336 -1.221507 -10.512900 -0.066852 10.146974 0.172927 -1.789293 -0.996107 0.114029 0.887390 5.290190 12.506521 17.193955 0.000000 0.000000 0.000000 -9.323963 0.591747 -6.039210 2.044473 0.021963 6.169124 3.483680 0.556771 11.406929 0.000000 0.000000 0.000000 5.944272 -0.813808 9.110439 -3.180692 1.344357 -32.231387 -1.188924 16.001421 28.183277 12.892404 -4.722618 -25.082126 0.000000 0.000000 0.000000 20.584247 6.799374 0.957218 4.075836 -11.563701 -0.671316 26.089728 -5.330027 -1.878539 0.000000 0.000000 0.000000 -7.900081 -14.546922 -4.926490 -0.189427 0.651658 -0.038543 -12.303844 14.905217 -0.647418 0.000000 0.000000 0.000000 
-0.181184 0.962802 -0.777435 -1.381324 -10.627011 0.182550 10.245984 0.179498 -0.800761 -0.797224 0.097380 0.351067 4.740884 11.598443 16.242378 0.000000 0.000000 0.000000 -9.411195 0.572583 -4.776389 2.255079 -0.029430 5.499107 -0.173231 -6.808746 12.187208 0.000000 0.000000 0.000000 6.391002 -0.748372 7.848282 -2.860482 1.357878 -33.770990 -0.446599 16.652555 27.837037 11.180975 -3.814048 -23.587684 0.000000 0.000000 0.000000 24.808346 9.818607 1.221268 8.255126 -11.103893 -0.523691 24.577612 0.924061 -0.587705 0.000000 0.000000 0.000000 -13.972365 -15.830741 -4.868756 -4.846864 -1.968837 0.960529 -12.055160 7.172766 -0.083148 0.000000 0.000000 0.000000 
-0.181578 0.962134 -0.769177 -1.645547 -10.001839 0.232736 10.614919 0.173171 -0.279033 -0.389734 0.034866 0.648981 3.525491 9.639268 14.624043 0.000000 0.000000 0.000000 -9.381897 0.534044 -3.620619 2.223394 -0.044742 5.109753 -3.390439 -12.825404 13.439712 0.000000 0.000000 0.000000 6.376655 -0.655894 6.695939 -2.859671 1.410817 -35.444597 0.301436 16.059380 28.093660 10.721938 -3.814291 -22.315983 0.000000 0.000000 0.000000 27.577638 12.191586 1.262473 13.005827 -13.042865 -0.857820 22.988005 7.080399 0.509573 0.000000 0.000000 0.000000 -17.250346 -16.810518 -4.822141 -9.541253 -2.290550 1.863910 -11.815222 2.438169 0.228219 0.000000 0.000000 0.000000 
-0.182369 0.960564 -0.762657 -1.965579 -10.045017 0.039621 10.860702 0.189579 0.709764 -0.356261 0.045193 0.059536 3.820125 10.074101 14.295777 0.000000 0.000000 0.000000 -9.177338 0.509430 -2.879527 2.542559 -0.081055 5.250953 -5.156705 -15.770482 13.296549 0.000000 0.000000 0.000000 6.462586 -0.612797 6.191989 -1.995195 1.395155 -37.656433 0.642869 16.460290 29.147064 10.299149 -3.400918 -22.840699 0.000000 0.000000 0.000000 31.290940 12.182715 1.791749 15.048389 -12.827273 -0.837056 22.235646 11.266177 1.074826 0.000000 0.000000 0.000000 -19.784630 -17.688132 -4.952412 -12.686560 -1.690382 2.409401 -13.514670 -0.018382 0.465661 0.000000 0.000000 0.000000 
-0.183187 0.959367 -0.757217 -1.819874 -10.147980 -0.268202 10.703929 0.201226 1.607462 -0.577199 0.082371 -0.289929 4.170215 10.591702 13.906408 0.000000 0.000000 0.000000 -9.153972 0.484721 -1.741627 2.298792 -0.064227 4.810856 -5.319539 -15.950929 12.845834 0.000000 0.000000 0.000000 5.979285 -0.500157 5.237944 -1.314927 1.343956 -38.138386 0.782967 16.788398 28.798147 10.072301 -3.392111 -21.799346 0.000000 0.000000 0.000000 33.669232 12.469897 2.212670 17.634499 -13.935026 -1.197210 23.150780 13.460281 1.418881 0.000000 0.000000 0.000000 -22.121767 -17.792865 -4.821660 -14.866017 -0.653988 2.645643 -14.442636 -1.278399 0.626591 0.000000 0.000000 0.000000 
-0.183302 0.958793 -0.752102 -1.858492 -10.662717 -0.623598 10.776364 0.234101 2.329165 -0.947781 0.124262 0.018266 4.631721 11.247242 13.470358 0.000000 0.000000 0.000000 -9.085760 0.473750 -0.913063 1.936661 -0.012813 4.897397 -5.492490 -16.296779 12.994743 0.000000 0.000000 0.000000 6.193914 -0.445694 4.617757 -1.353847 1.370631 -38.364400 1.005649 16.918580 28.753443 9.521298 -3.074352 -21.631291 0.000000 0.000000 0.000000 36.101585 13.009990 2.473075 19.162871 -15.119701 -1.561969 25.215160 15.614659 1.917944 0.000000 0.000000 0.000000 -25.011320 -18.480825 -4.542468 -15.652656 0.897867 2.422357 -17.174742 -1.426676 0.801562 0.000000 0.000000 0.000000 
-0.182518 0.958210 -0.747247 -1.815376 -10.708757 -1.283954 10.796826 0.256534 2.833907 -1.441165 0.190160 -0.009071 5.314131 12.450970 14.825315 0.000000 0.000000 0.000000 -9.360817 0.463881 0.211261 1.841301 0.004332 5.056375 -5.621044 -16.509072 13.066277 0.000000 0.000000 0.000000 6.243115 -0.412456 4.382277 -1.089533 1.437485 -39.765484 1.183557 17.487721 29.700004 9.117216 -2.665854 -21.836031 0.000000 0.000000 0.000000 37.578785 12.959814 2.774991 20.610620 -16.112118 -1.976824 29.142771 16.349746 2.294681 0.000000 0.000000 0.000000 -27.139972 -19.025373 -4.531447 -15.471795 2.991767 1.976836 -22.196944 -0.582105 1.032591 0.000000 0.000000 0.000000 
-0.180647 0.956969 -0.742903 -1.798837 -10.596130 -1.259517 9.974793 0.261179 3.706685 -1.765465 0.255476 -1.512283 7.422961 15.747768 14.867150 0.000000 0.000000 0.000000 -9.220617 0.446539 1.024937 1.536489 0.008643 4.185536 -6.079055 -17.476664 14.563521 0.000000 0.000000 0.000000 6.385042 -0.287318 2.973051 -1.451455 1.472484 -39.768017 1.608331 17.316192 30.086514 8.401116 -2.312103 -21.189185 0.000000 0.000000 0.000000 38.446968 13.656149 2.828706 20.002231 -18.307330 -2.575918 33.940334 16.091792 2.638291 0.000000 0.000000 0.000000 -28.583861 -19.541432 -4.344618 -14.610190 4.166925 1.581445 -28.074351 0.332553 1.232643 0.000000 0.000000 0.000000 
-0.178113 0.955118 -0.739483 -1.917957 -9.944134 -1.376457 9.916163 0.236830 3.353065 -2.612485 0.354209 -1.473018 9.016500 18.231408 15.494566 0.000000 0.000000 0.000000 -9.065295 0.408755 1.818973 1.064380 0.059717 4.119942 -6.334334 -18.220883 17.750474 0.000000 0.000000 0.000000 6.345779 -0.227869 2.365824 -1.314959 1.439885 -39.696318 1.447677 16.405038 29.916002 7.957472 -2.102457 -21.191587 0.000000 0.000000 0.000000 37.318796 12.891868 2.627704 18.502332 -19.776486 -2.832165 40.624566 17.160619 3.533298 0.000000 0.000000 0.000000 -27.689662 -19.267859 -4.170039 -13.016962 5.616388 1.038143 -34.341297 2.599569 0.946592 0.000000 0.000000 0.000000 
-0.175404 0.951902 -0.737243 -1.319033 -8.174585 -2.106537 8.962362 0.200548 3.209870 -2.896062 0.377265 -1.136863 9.677160 19.389219 15.003373 0.000000 0.000000 0.000000 -9.442863 0.364700 3.332798 0.904462 0.065233 3.967738 -7.999301 -20.682023 20.879209 0.000000 0.000000 0.000000 5.366484 -0.175589 2.034266 -1.194374 1.298601 -38.399974 1.265360 15.460583 29.989978 8.040683 -2.150558 -21.183682 0.000000 0.000000 0.000000 34.144439 12.880691 2.266185 16.049869 -22.699103 -3.430600 47.142074 15.903632 3.581600 0.000000 0.000000 0.000000 -24.285196 -19.991481 -4.779599 -10.451833 8.494866 0.336422 -42.677198 4.934554 0.522480 0.000000 0.000000 0.000000 
-0.173730 0.946486 -0.736252 -0.816793 -7.876579 -3.179678 8.474618 0.222002 3.378454 -3.466282 0.444460 0.102013 10.498583 20.715066 13.949235 0.000000 0.000000 0.000000 -10.116262 0.391297 4.591142 0.696250 0.107209 4.375385 -8.403485 -21.265635 22.608081 0.000000 0.000000 0.000000 4.563879 -0.169977 2.270876 -0.158908 1.022833 -35.759820 0.637093 16.114700 28.292356 7.731534 -1.978849 -19.977771 0.000000 0.000000 0.000000 29.973230 9.746334 2.372688 12.915880 -23.722458 -3.417014 52.325847 12.644314 2.317645 0.000000 0.000000 0.000000 -18.596427 -17.937397 -5.100840 -7.092666 11.168042 -0.266017 -51.657710 7.310014 -0.142778 0.000000 0.000000 0.000000 
-0.173146 0.940694 -0.736881 -0.204529 -6.511786 -4.993301 8.348988 0.219053 3.236879 -4.201606 0.555826 3.207265 9.943045 20.076597 11.446946 0.000000 0.000000 0.000000 -10.653627 0.357743 6.130262 0.870609 0.170410 6.585640 -9.711548 -22.894254 22.455662 0.000000 0.000000 0.000000 4.091153 -0.174682 2.718002 -1.109931 1.051259 -33.652524 0.500178 15.114069 28.087480 8.430575 -2.543157 -19.726930 0.000000 0.000000 0.000000 23.719824 6.544295 1.885834 9.228117 -26.354575 -3.551703 58.894890 2.718210 -2.434724 0.000000 0.000000 0.000000 -10.469299 -15.708879 -5.273177 -1.949706 14.994532 -0.869239 -63.811273 12.964131 -3.566189 0.000000 0.000000 0.000000 
-0.173899 0.934255 -0.739791 0.412546 -6.042316 -6.867941 7.594104 0.254222 3.469548 -3.779606 0.505997 5.908782 9.897681 20.118257 9.437305 0.000000 0.000000 0.000000 -11.800951 0.422264 7.121154 1.778881 0.119182 9.061649 -9.645823 -22.803454 18.891552 0.000000 0.000000 0.000000 4.422354 -0.192441 3.215536 -2.209277 1.161861 -30.801835 -0.024449 15.086602 27.894960 8.848918 -2.501420 -21.325143 0.000000 0.000000 0.000000 17.859785 1.776485 1.984358 3.786113 -29.960721 -3.482601 59.359032 -11.107183 -9.599054 0.000000 0.000000 0.000000 -1.730408 -12.349457 -4.675283 5.209044 18.843669 -1.154249 -76.781850 26.060290 -14.389684 0.000000 0.000000 0.000000 
